<?xml version="1.0" encoding="utf-8"?>
<!-- Generator: Adobe Illustrator 23.1.0, SVG Export Plug-In . SVG Version: 6.00 Build 0)  -->
<svg version="1.1" id="Layer_1" xmlns="http://www.w3.org/2000/svg" xmlns:xlink="http://www.w3.org/1999/xlink" x="0px" y="0px"
	 viewBox="0 0 2416.5 387.2" style="enable-background:new 0 0 2416.5 387.2;" xml:space="preserve">
<style type="text/css">
	.st0{fill:#FFFFFF;}
	.st1{fill:#FCB131;}
	.st2{fill:#ED1B2E;}
</style>
<g>
	<g>
		<path class="st0" d="M384,0c-38.4,0-70.4,28-76.8,64.6H13.3v26.6H63v101.6h26.6V91.2h76.6V166h26.6V91.2h114.3
			c6.3,36.6,38.3,64.6,76.8,64.6c43,0,77.9-35,77.9-77.9S427,0,384,0z M384,129.2c-28.3,0-51.3-23-51.3-51.3s23-51.3,51.3-51.3
			s51.3,23,51.3,51.3S412.3,129.2,384,129.2z"/>
		<path class="st0" d="M398.9,295.9V194.3h-26.6v101.6h-76.6v-74.7H269v74.7H154.7c-6.3-36.6-38.3-64.6-76.8-64.6
			C35,231.3,0,266.3,0,309.2s35,77.9,77.9,77.9c38.4,0,70.4-28,76.8-64.6h293.9v-26.6L398.9,295.9L398.9,295.9z M77.9,360.5
			c-28.3,0-51.3-23-51.3-51.3s23-51.3,51.3-51.3c28.3,0,51.3,23,51.3,51.3S106.2,360.5,77.9,360.5z"/>
		
			<ellipse transform="matrix(3.327793e-02 -0.9994 0.9994 3.327793e-02 -233.7389 376.8204)" class="st1" cx="77.9" cy="309.2" rx="33.5" ry="33.5"/>
		<circle class="st2" cx="384" cy="77.9" r="33.5"/>
	</g>
	<g>
		<path class="st0" d="M649.7,214L634,229.7v112.9h-53.3V44.6H634v104.6l15.7,15.7h107.7l15.7-15.7V44.6h53.3v298.1h-53.3V229.7
			L757.4,214H649.7z"/>
		<path class="st0" d="M1170,342.6h-57.5l-29.8-81H955.1l-29.8,81h-56.5L985.4,44.6h68.5L1170,342.6z M976,206.1l9.4,9.4h66.4
			l9.9-9.9l-35-94.6H1011L976,206.1z"/>
		<path class="st0" d="M1333.6,228.1h-58.6v114.5h-53.3V44.6h124.4c77.4,0,120.8,33.5,120.8,92c0,43.4-23,72.7-66.4,84.7v12
			l80,109.3h-63.8L1333.6,228.1z M1345.1,93.7h-54.4l-15.7,15.7v69.5h70.1c43.9,0,66.9-14.6,66.9-42.4S1389.1,93.7,1345.1,93.7z"/>
		<path class="st0" d="M1668.3,228.1h-71.1v114.5h-53.3V44.6h124.4c77.4,0,120.8,33.5,120.8,92
			C1789.1,195.7,1746.2,228.1,1668.3,228.1z M1597.2,109.4v69.5h70.1c43.9,0,66.9-14.6,66.9-42.4s-23-42.9-66.9-42.9h-54.4
			L1597.2,109.4z"/>
		<path class="st0" d="M2066.7,81.7c25.6,29.3,38.7,66.4,38.7,111.9s-13.1,82.6-38.7,112.4c-25.6,29.3-59.1,43.9-99.9,43.9
			c-40.8,0-74.3-14.6-99.9-43.9c-25.6-29.8-38.7-66.9-38.7-112.4s13.1-82.6,38.7-111.9c25.6-29.8,59.1-44.4,99.9-44.4
			C2007.6,37.2,2041.1,51.9,2066.7,81.7z M2049.5,193.6c0-64.8-30.9-106.1-82.6-106.1s-82.6,41.3-82.6,106.1
			c0,64.8,30.9,106.1,82.6,106.1S2049.5,258.4,2049.5,193.6z"/>
		<path class="st0" d="M2209.5,193.6c0,63.3,31.4,104.1,83.7,104.1c29.8,0,52.8-16.2,79.5-59.6l43.9,33.5
			c-31.4,54.4-69,78.4-122.9,78.4c-40.3,0-73.7-14.6-100.4-44.4c-26.7-29.8-39.7-66.9-39.7-111.9c0-45,13.1-82.1,39.7-111.9
			s60.1-44.4,100.4-44.4c53.9,0,91.5,24.1,122.9,78.4l-43.9,33.5c-26.7-43.4-49.7-59.6-79.5-59.6
			C2240.8,89.5,2209.5,130.3,2209.5,193.6z"/>
	</g>
</g>
</svg>
